<?xml version="1.0" encoding="utf-8"?>
<!-- Generator: Adobe Illustrator 25.0.1, SVG Export Plug-In . SVG Version: 6.00 Build 0)  -->
<svg version="1.1" id="Слой_1" xmlns="http://www.w3.org/2000/svg" xmlns:xlink="http://www.w3.org/1999/xlink" x="0px" y="0px"
	 viewBox="0 0 650 145" style="enable-background:new 0 0 650 145;" xml:space="preserve">
<style type="text/css">
	.st0{stroke:#201600;stroke-width:20;stroke-miterlimit:10;}
</style>
<g>
	<path class="st0" d="M51.3,53.6"/>
	<polygon points="58.7,-2.6 8.2,105.7 1.3,102.2 	"/>
	<polygon points="30.7,51.1 6.7,11.6 -0.1,0.5 11.8,6.4 137.9,69.5 144.7,73 137.9,76.4 11.8,139.4 0.8,144.9 6.7,134.2 51.3,53.6 
		13.5,137.7 8.4,132.5 134.5,69.5 134.5,76.4 8.4,13.3 13.5,8.2 	"/>
</g>
<g>
	<path d="M165.8,114.4v-72h24.6c2,0,4,0,5.9,0.1c1.9,0.1,3.8,0.3,5.7,0.7c1.9,0.4,3.7,0.9,5.5,1.6c1.8,0.7,3.5,1.7,5.2,2.9
		c2.4,1.7,4.4,3.9,5.9,6.4s2.8,5.1,3.7,7.9c0.9,2.8,1.5,5.6,1.9,8.4c0.4,2.8,0.6,5.5,0.6,7.9s-0.2,4.8-0.5,7.3
		c-0.3,2.5-0.8,4.9-1.4,7.2c-0.7,2.4-1.6,4.6-2.7,6.8c-1.1,2.2-2.5,4.2-4.2,6c-1.7,1.9-3.5,3.4-5.4,4.5c-2,1.1-4,2-6.2,2.6
		c-2.2,0.6-4.4,1.1-6.8,1.3c-2.3,0.2-4.7,0.3-7.1,0.3H165.8z M172.6,108.6h16.3c3.1,0,5.9-0.2,8.6-0.5c2.7-0.4,5.4-1.3,8.2-2.8
		c2.4-1.2,4.4-2.8,5.9-4.9c1.5-2.1,2.8-4.3,3.7-6.8c0.9-2.4,1.5-5,1.9-7.7c0.4-2.7,0.6-5.2,0.6-7.7c0-2.6-0.2-5.2-0.5-7.9
		c-0.3-2.7-1-5.3-1.9-7.7c-0.9-2.4-2.2-4.7-3.8-6.7c-1.6-2-3.7-3.7-6.2-5c-2.1-1.1-4.7-1.9-7.6-2.2c-2.9-0.3-5.9-0.5-8.9-0.5h-16.3
		V108.6z"/>
	<path d="M244.7,81.7v32.7l-6.8-0.1V42.4h28.2c7.9,0,14,1.5,18.2,4.5c4.2,3,6.3,7.8,6.3,14.4c0,4.5-0.9,8.1-2.8,10.8
		c-1.8,2.7-4.8,4.9-9,6.8c2.1,0.7,3.8,1.8,5,3.2c1.2,1.4,2.1,3,2.7,4.8c0.6,1.8,1,3.7,1.1,5.7c0.2,2,0.3,3.9,0.4,5.8
		c0.1,2.7,0.2,5,0.3,6.8c0.2,1.8,0.4,3.3,0.6,4.4c0.2,1.1,0.5,2,0.8,2.6c0.3,0.6,0.7,1.1,1.2,1.5v0.6l-7.5,0.1
		c-0.7-1.2-1.2-2.9-1.5-5c-0.3-2.1-0.5-4.4-0.7-6.7c-0.2-2.3-0.3-4.6-0.4-6.8c-0.1-2.2-0.3-4-0.5-5.4c-0.4-1.9-1-3.5-2-4.6
		c-0.9-1.2-2-2-3.2-2.7c-1.3-0.6-2.7-1-4.2-1.2c-1.6-0.2-3.2-0.3-4.8-0.3H244.7z M265.9,75.9c2.5,0,4.9-0.3,7-0.8
		c2.2-0.5,4-1.4,5.7-2.6c1.6-1.2,2.9-2.6,3.8-4.4c0.9-1.8,1.4-4,1.4-6.5c0-2.7-0.5-4.9-1.5-6.6c-1-1.7-2.3-3.1-3.9-4.1
		c-1.6-1-3.5-1.7-5.6-2.1c-2.1-0.4-4.3-0.6-6.5-0.6h-21.6v27.7H265.9z"/>
	<path d="M307.1,114.4v-72h6.8v72H307.1z"/>
	<path d="M326.2,42.4h7.1l21.7,64l21.6-64h7.1l-25,72h-7.5L326.2,42.4z"/>
	<path d="M393.6,114.4v-72h47.9v5.8h-41.1v26h37.1V80h-37.1v28.6h42.1v5.8H393.6z"/>
	<path d="M454.7,114.4v-72h26c4.2,0,7.8,0.4,10.8,1.3c3,0.9,5.4,2.1,7.3,3.7s3.3,3.5,4.2,5.8c0.9,2.2,1.3,4.7,1.3,7.4
		c0,2.5-0.3,4.7-1,6.5c-0.7,1.8-1.5,3.4-2.6,4.6c-1.1,1.2-2.3,2.2-3.6,2.9c-1.4,0.7-2.8,1.2-4.2,1.5v0.2c5,0.7,8.7,2.7,11.1,5.9
		s3.7,7.2,3.7,12c0,3.7-0.6,6.9-1.8,9.5c-1.2,2.6-2.8,4.7-4.8,6.3c-2.1,1.6-4.6,2.8-7.5,3.5c-2.9,0.7-6,1-9.5,1H454.7z M461.5,74.2
		h17.2c3.5,0,6.5-0.3,8.9-0.9s4.3-1.5,5.8-2.6c1.5-1.2,2.5-2.6,3.2-4.3c0.6-1.7,1-3.7,1-5.9c0-2.3-0.4-4.2-1.1-5.8
		c-0.7-1.6-1.9-2.8-3.5-3.8c-1.6-1-3.7-1.7-6.2-2.1c-2.6-0.4-5.7-0.7-9.5-0.7h-15.7V74.2z M461.5,108.6h17.3c3.7,0,7-0.2,9.8-0.5
		c2.8-0.3,5-1,6.8-2c1.8-1,3.2-2.5,4-4.4c0.9-1.9,1.4-4.4,1.4-7.5c0-3-0.5-5.4-1.5-7.2c-1-1.8-2.4-3.2-4.3-4.2
		c-1.9-1-4.1-1.7-6.7-2.1c-2.6-0.4-5.5-0.5-8.7-0.5h-18.1V108.6z"/>
	<path d="M518.6,78.5c0-5.3,0.7-10.2,2.2-14.8c1.4-4.6,3.5-8.6,6.3-12c2.8-3.4,6.3-6.1,10.4-8.1c4.1-2,8.9-3,14.3-3
		c5.6,0,10.5,1,14.8,2.9c4.2,2,7.8,4.7,10.6,8.1c2.8,3.4,5,7.5,6.4,12.1c1.4,4.6,2.2,9.6,2.2,14.9c0,5.2-0.7,10.1-2.2,14.6
		c-1.4,4.6-3.5,8.6-6.3,12c-2.8,3.4-6.3,6.2-10.5,8.2c-4.2,2-9.1,3-14.6,3c-5.5,0-10.4-1-14.6-3s-7.7-4.7-10.5-8.2
		c-2.8-3.4-4.9-7.4-6.3-12C519.3,88.6,518.6,83.7,518.6,78.5z M552.2,110.5c4.7,0,8.7-0.9,12-2.6c3.4-1.8,6.1-4.1,8.3-7
		c2.2-2.9,3.8-6.3,4.8-10.2c1-3.9,1.5-7.9,1.5-12.1c0-5-0.6-9.5-1.8-13.5c-1.2-4-3-7.4-5.3-10.1c-2.3-2.8-5.2-4.9-8.5-6.4
		c-3.3-1.5-7.1-2.2-11.2-2.2c-4.6,0-8.6,0.9-12,2.7c-3.4,1.8-6.1,4.2-8.3,7.1c-2.2,3-3.8,6.4-4.8,10.3c-1,3.9-1.6,7.9-1.6,12.1
		c0,4.3,0.5,8.3,1.6,12.2c1,3.9,2.6,7.3,4.8,10.2c2.2,2.9,4.9,5.3,8.3,7C543.4,109.7,547.5,110.5,552.2,110.5z"/>
	<path d="M621.5,82.6l-20.9,31.8h-7.7l24.8-37l-23.8-35h7.9l19.7,30.3l19.8-30.3h7.9l-23.6,35l24.7,37h-7.8L621.5,82.6z"/>
</g>
</svg>
